%TF.GenerationSoftware,KiCad,Pcbnew,(5.1.12)-1*%
%TF.CreationDate,2022-01-09T19:11:42+09:00*%
%TF.ProjectId,24VFanController,32345646-616e-4436-9f6e-74726f6c6c65,rev?*%
%TF.SameCoordinates,PX6d01460PY196f3b0*%
%TF.FileFunction,Legend,Top*%
%TF.FilePolarity,Positive*%
%FSLAX46Y46*%
G04 Gerber Fmt 4.6, Leading zero omitted, Abs format (unit mm)*
G04 Created by KiCad (PCBNEW (5.1.12)-1) date 2022-01-09 19:11:42*
%MOMM*%
%LPD*%
G01*
G04 APERTURE LIST*
%ADD10C,0.120000*%
%ADD11C,0.127000*%
%ADD12C,0.150000*%
%ADD13C,0.100000*%
G04 APERTURE END LIST*
D10*
%TO.C,J4*%
X80220000Y-28900000D02*
X78970000Y-28900000D01*
X80220000Y-30150000D02*
X80220000Y-28900000D01*
X74720000Y-36050000D02*
X74720000Y-33000000D01*
X77670000Y-36050000D02*
X74720000Y-36050000D01*
X77670000Y-36800000D02*
X77670000Y-36050000D01*
X74720000Y-29950000D02*
X74720000Y-33000000D01*
X77670000Y-29950000D02*
X74720000Y-29950000D01*
X77670000Y-29200000D02*
X77670000Y-29950000D01*
X79920000Y-36800000D02*
X79920000Y-35000000D01*
X79170000Y-36800000D02*
X79920000Y-36800000D01*
X79170000Y-35000000D02*
X79170000Y-36800000D01*
X79920000Y-35000000D02*
X79170000Y-35000000D01*
X79920000Y-31000000D02*
X79920000Y-29200000D01*
X79170000Y-31000000D02*
X79920000Y-31000000D01*
X79170000Y-29200000D02*
X79170000Y-31000000D01*
X79920000Y-29200000D02*
X79170000Y-29200000D01*
X79920000Y-33500000D02*
X79920000Y-32500000D01*
X79170000Y-33500000D02*
X79920000Y-33500000D01*
X79170000Y-32500000D02*
X79170000Y-33500000D01*
X79920000Y-32500000D02*
X79170000Y-32500000D01*
X79930000Y-36810000D02*
X79930000Y-29190000D01*
X73960000Y-36810000D02*
X79930000Y-36810000D01*
X73960000Y-29190000D02*
X73960000Y-36810000D01*
X79930000Y-29190000D02*
X73960000Y-29190000D01*
%TO.C,  *%
X15735000Y-24370000D02*
X15735000Y-54370000D01*
X15735000Y-39370000D02*
X15735000Y-24370000D01*
X735000Y-24370000D02*
X30735000Y-24370000D01*
X735000Y-54370000D02*
X735000Y-24370000D01*
X30735000Y-54370000D02*
X735000Y-54370000D01*
X30735000Y-54370000D02*
X30735000Y-24370000D01*
X30735000Y-39370000D02*
X30735000Y-54370000D01*
%TO.C,D1*%
X70050000Y-59020000D02*
X67110000Y-59020000D01*
X70050000Y-59260000D02*
X67110000Y-59260000D01*
X70050000Y-59140000D02*
X67110000Y-59140000D01*
X68580000Y-64700000D02*
X68580000Y-63680000D01*
X68580000Y-57220000D02*
X68580000Y-58240000D01*
X70050000Y-63680000D02*
X70050000Y-58240000D01*
X67110000Y-63680000D02*
X70050000Y-63680000D01*
X67110000Y-58240000D02*
X67110000Y-63680000D01*
X70050000Y-58240000D02*
X67110000Y-58240000D01*
%TO.C,D2*%
X70050000Y-77290000D02*
X67110000Y-77290000D01*
X67110000Y-77290000D02*
X67110000Y-82730000D01*
X67110000Y-82730000D02*
X70050000Y-82730000D01*
X70050000Y-82730000D02*
X70050000Y-77290000D01*
X68580000Y-76270000D02*
X68580000Y-77290000D01*
X68580000Y-83750000D02*
X68580000Y-82730000D01*
X70050000Y-78190000D02*
X67110000Y-78190000D01*
X70050000Y-78310000D02*
X67110000Y-78310000D01*
X70050000Y-78070000D02*
X67110000Y-78070000D01*
%TO.C,J1*%
X57630000Y-10440000D02*
X57630000Y-1440000D01*
X57630000Y-1440000D02*
X66830000Y-1440000D01*
X66830000Y-1440000D02*
X66830000Y-16040000D01*
X66830000Y-16040000D02*
X64030000Y-16040000D01*
X60430000Y-16040000D02*
X57630000Y-16040000D01*
X57630000Y-16040000D02*
X57630000Y-14040000D01*
X67070000Y-14540000D02*
X67070000Y-16280000D01*
X67070000Y-16280000D02*
X65330000Y-16280000D01*
%TO.C,J5*%
X79930000Y-19030000D02*
X73960000Y-19030000D01*
X73960000Y-19030000D02*
X73960000Y-26650000D01*
X73960000Y-26650000D02*
X79930000Y-26650000D01*
X79930000Y-26650000D02*
X79930000Y-19030000D01*
X79920000Y-22340000D02*
X79170000Y-22340000D01*
X79170000Y-22340000D02*
X79170000Y-23340000D01*
X79170000Y-23340000D02*
X79920000Y-23340000D01*
X79920000Y-23340000D02*
X79920000Y-22340000D01*
X79920000Y-19040000D02*
X79170000Y-19040000D01*
X79170000Y-19040000D02*
X79170000Y-20840000D01*
X79170000Y-20840000D02*
X79920000Y-20840000D01*
X79920000Y-20840000D02*
X79920000Y-19040000D01*
X79920000Y-24840000D02*
X79170000Y-24840000D01*
X79170000Y-24840000D02*
X79170000Y-26640000D01*
X79170000Y-26640000D02*
X79920000Y-26640000D01*
X79920000Y-26640000D02*
X79920000Y-24840000D01*
X77670000Y-19040000D02*
X77670000Y-19790000D01*
X77670000Y-19790000D02*
X74720000Y-19790000D01*
X74720000Y-19790000D02*
X74720000Y-22840000D01*
X77670000Y-26640000D02*
X77670000Y-25890000D01*
X77670000Y-25890000D02*
X74720000Y-25890000D01*
X74720000Y-25890000D02*
X74720000Y-22840000D01*
X80220000Y-19990000D02*
X80220000Y-18740000D01*
X80220000Y-18740000D02*
X78970000Y-18740000D01*
%TO.C,J8*%
X40315000Y-95460000D02*
X40315000Y-94210000D01*
X39065000Y-95460000D02*
X40315000Y-95460000D01*
X33165000Y-89960000D02*
X36215000Y-89960000D01*
X33165000Y-92910000D02*
X33165000Y-89960000D01*
X32415000Y-92910000D02*
X33165000Y-92910000D01*
X39265000Y-89960000D02*
X36215000Y-89960000D01*
X39265000Y-92910000D02*
X39265000Y-89960000D01*
X40015000Y-92910000D02*
X39265000Y-92910000D01*
X32415000Y-95160000D02*
X34215000Y-95160000D01*
X32415000Y-94410000D02*
X32415000Y-95160000D01*
X34215000Y-94410000D02*
X32415000Y-94410000D01*
X34215000Y-95160000D02*
X34215000Y-94410000D01*
X38215000Y-95160000D02*
X40015000Y-95160000D01*
X38215000Y-94410000D02*
X38215000Y-95160000D01*
X40015000Y-94410000D02*
X38215000Y-94410000D01*
X40015000Y-95160000D02*
X40015000Y-94410000D01*
X35715000Y-95160000D02*
X36715000Y-95160000D01*
X35715000Y-94410000D02*
X35715000Y-95160000D01*
X36715000Y-94410000D02*
X35715000Y-94410000D01*
X36715000Y-95160000D02*
X36715000Y-94410000D01*
X32405000Y-95170000D02*
X40025000Y-95170000D01*
X32405000Y-89200000D02*
X32405000Y-95170000D01*
X40025000Y-89200000D02*
X32405000Y-89200000D01*
X40025000Y-95170000D02*
X40025000Y-89200000D01*
%TO.C,J9*%
X50820000Y-95170000D02*
X50820000Y-89200000D01*
X50820000Y-89200000D02*
X43200000Y-89200000D01*
X43200000Y-89200000D02*
X43200000Y-95170000D01*
X43200000Y-95170000D02*
X50820000Y-95170000D01*
X47510000Y-95160000D02*
X47510000Y-94410000D01*
X47510000Y-94410000D02*
X46510000Y-94410000D01*
X46510000Y-94410000D02*
X46510000Y-95160000D01*
X46510000Y-95160000D02*
X47510000Y-95160000D01*
X50810000Y-95160000D02*
X50810000Y-94410000D01*
X50810000Y-94410000D02*
X49010000Y-94410000D01*
X49010000Y-94410000D02*
X49010000Y-95160000D01*
X49010000Y-95160000D02*
X50810000Y-95160000D01*
X45010000Y-95160000D02*
X45010000Y-94410000D01*
X45010000Y-94410000D02*
X43210000Y-94410000D01*
X43210000Y-94410000D02*
X43210000Y-95160000D01*
X43210000Y-95160000D02*
X45010000Y-95160000D01*
X50810000Y-92910000D02*
X50060000Y-92910000D01*
X50060000Y-92910000D02*
X50060000Y-89960000D01*
X50060000Y-89960000D02*
X47010000Y-89960000D01*
X43210000Y-92910000D02*
X43960000Y-92910000D01*
X43960000Y-92910000D02*
X43960000Y-89960000D01*
X43960000Y-89960000D02*
X47010000Y-89960000D01*
X49860000Y-95460000D02*
X51110000Y-95460000D01*
X51110000Y-95460000D02*
X51110000Y-94210000D01*
%TO.C,J10*%
X79930000Y-39350000D02*
X73960000Y-39350000D01*
X73960000Y-39350000D02*
X73960000Y-51970000D01*
X73960000Y-51970000D02*
X79930000Y-51970000D01*
X79930000Y-51970000D02*
X79930000Y-39350000D01*
X79920000Y-42660000D02*
X79170000Y-42660000D01*
X79170000Y-42660000D02*
X79170000Y-48660000D01*
X79170000Y-48660000D02*
X79920000Y-48660000D01*
X79920000Y-48660000D02*
X79920000Y-42660000D01*
X79920000Y-39360000D02*
X79170000Y-39360000D01*
X79170000Y-39360000D02*
X79170000Y-41160000D01*
X79170000Y-41160000D02*
X79920000Y-41160000D01*
X79920000Y-41160000D02*
X79920000Y-39360000D01*
X79920000Y-50160000D02*
X79170000Y-50160000D01*
X79170000Y-50160000D02*
X79170000Y-51960000D01*
X79170000Y-51960000D02*
X79920000Y-51960000D01*
X79920000Y-51960000D02*
X79920000Y-50160000D01*
X77670000Y-39360000D02*
X77670000Y-40110000D01*
X77670000Y-40110000D02*
X74720000Y-40110000D01*
X74720000Y-40110000D02*
X74720000Y-45660000D01*
X77670000Y-51960000D02*
X77670000Y-51210000D01*
X77670000Y-51210000D02*
X74720000Y-51210000D01*
X74720000Y-51210000D02*
X74720000Y-45660000D01*
X80220000Y-40310000D02*
X80220000Y-39060000D01*
X80220000Y-39060000D02*
X78970000Y-39060000D01*
D11*
%TO.C,Q1*%
X58750000Y-58830000D02*
X58750000Y-65630000D01*
X58400000Y-58880000D02*
X58400000Y-65630000D01*
X58750000Y-65630000D02*
X58400000Y-65630000D01*
X58400000Y-65630000D02*
X57800000Y-65630000D01*
X58750000Y-58830000D02*
X58150000Y-58830000D01*
%TO.C,Q2*%
X58750000Y-75340000D02*
X58150000Y-75340000D01*
X58400000Y-82140000D02*
X57800000Y-82140000D01*
X58750000Y-82140000D02*
X58400000Y-82140000D01*
X58400000Y-75390000D02*
X58400000Y-82140000D01*
X58750000Y-75340000D02*
X58750000Y-82140000D01*
D10*
%TO.C,R1*%
X58960000Y-18950000D02*
X58960000Y-21690000D01*
X58960000Y-21690000D02*
X65500000Y-21690000D01*
X65500000Y-21690000D02*
X65500000Y-18950000D01*
X65500000Y-18950000D02*
X58960000Y-18950000D01*
X58190000Y-20320000D02*
X58960000Y-20320000D01*
X66270000Y-20320000D02*
X65500000Y-20320000D01*
%TO.C,R2*%
X58960000Y-24030000D02*
X58960000Y-26770000D01*
X58960000Y-26770000D02*
X65500000Y-26770000D01*
X65500000Y-26770000D02*
X65500000Y-24030000D01*
X65500000Y-24030000D02*
X58960000Y-24030000D01*
X58190000Y-25400000D02*
X58960000Y-25400000D01*
X66270000Y-25400000D02*
X65500000Y-25400000D01*
%TO.C,R3*%
X30580000Y-74200000D02*
X27840000Y-74200000D01*
X27840000Y-74200000D02*
X27840000Y-80740000D01*
X27840000Y-80740000D02*
X30580000Y-80740000D01*
X30580000Y-80740000D02*
X30580000Y-74200000D01*
X29210000Y-73430000D02*
X29210000Y-74200000D01*
X29210000Y-81510000D02*
X29210000Y-80740000D01*
%TO.C,R4*%
X66270000Y-40640000D02*
X65500000Y-40640000D01*
X58190000Y-40640000D02*
X58960000Y-40640000D01*
X65500000Y-39270000D02*
X58960000Y-39270000D01*
X65500000Y-42010000D02*
X65500000Y-39270000D01*
X58960000Y-42010000D02*
X65500000Y-42010000D01*
X58960000Y-39270000D02*
X58960000Y-42010000D01*
%TO.C,R5*%
X66270000Y-45720000D02*
X65500000Y-45720000D01*
X58190000Y-45720000D02*
X58960000Y-45720000D01*
X65500000Y-44350000D02*
X58960000Y-44350000D01*
X65500000Y-47090000D02*
X65500000Y-44350000D01*
X58960000Y-47090000D02*
X65500000Y-47090000D01*
X58960000Y-44350000D02*
X58960000Y-47090000D01*
%TO.C,R6*%
X66270000Y-30480000D02*
X65500000Y-30480000D01*
X58190000Y-30480000D02*
X58960000Y-30480000D01*
X65500000Y-29110000D02*
X58960000Y-29110000D01*
X65500000Y-31850000D02*
X65500000Y-29110000D01*
X58960000Y-31850000D02*
X65500000Y-31850000D01*
X58960000Y-29110000D02*
X58960000Y-31850000D01*
%TO.C,R7*%
X65500000Y-36930000D02*
X65500000Y-34190000D01*
X65500000Y-34190000D02*
X58960000Y-34190000D01*
X58960000Y-34190000D02*
X58960000Y-36930000D01*
X58960000Y-36930000D02*
X65500000Y-36930000D01*
X66270000Y-35560000D02*
X65500000Y-35560000D01*
X58190000Y-35560000D02*
X58960000Y-35560000D01*
%TO.C,R8*%
X39370000Y-81510000D02*
X39370000Y-80740000D01*
X39370000Y-73430000D02*
X39370000Y-74200000D01*
X40740000Y-80740000D02*
X40740000Y-74200000D01*
X38000000Y-80740000D02*
X40740000Y-80740000D01*
X38000000Y-74200000D02*
X38000000Y-80740000D01*
X40740000Y-74200000D02*
X38000000Y-74200000D01*
%TO.C,R9*%
X42450000Y-18950000D02*
X42450000Y-21690000D01*
X42450000Y-21690000D02*
X48990000Y-21690000D01*
X48990000Y-21690000D02*
X48990000Y-18950000D01*
X48990000Y-18950000D02*
X42450000Y-18950000D01*
X41680000Y-20320000D02*
X42450000Y-20320000D01*
X49760000Y-20320000D02*
X48990000Y-20320000D01*
%TO.C,R10*%
X49760000Y-25400000D02*
X48990000Y-25400000D01*
X41680000Y-25400000D02*
X42450000Y-25400000D01*
X48990000Y-24030000D02*
X42450000Y-24030000D01*
X48990000Y-26770000D02*
X48990000Y-24030000D01*
X42450000Y-26770000D02*
X48990000Y-26770000D01*
X42450000Y-24030000D02*
X42450000Y-26770000D01*
%TO.C,U1*%
X15526000Y-44490000D02*
X15526000Y-34250000D01*
X20167000Y-44490000D02*
X20167000Y-34250000D01*
X15526000Y-44490000D02*
X20167000Y-44490000D01*
X15526000Y-34250000D02*
X20167000Y-34250000D01*
X17036000Y-44490000D02*
X17036000Y-34250000D01*
X15526000Y-41220000D02*
X17036000Y-41220000D01*
X15526000Y-37519000D02*
X17036000Y-37519000D01*
%TO.C,U3*%
X39370000Y-52070000D02*
X39370000Y-29210000D01*
X39370000Y-29210000D02*
X49530000Y-29210000D01*
X49530000Y-29210000D02*
X49530000Y-52070000D01*
X49530000Y-52070000D02*
X39370000Y-52070000D01*
%TO.C,U4*%
X27880000Y-64500000D02*
X27880000Y-66150000D01*
X27880000Y-66150000D02*
X33080000Y-66150000D01*
X33080000Y-66150000D02*
X33080000Y-60850000D01*
X33080000Y-60850000D02*
X27880000Y-60850000D01*
X27880000Y-60850000D02*
X27880000Y-62500000D01*
X27880000Y-62500000D02*
G75*
G02*
X27880000Y-64500000I0J-1000000D01*
G01*
%TO.C,U6*%
X38040000Y-60850000D02*
X38040000Y-62500000D01*
X43240000Y-60850000D02*
X38040000Y-60850000D01*
X43240000Y-66150000D02*
X43240000Y-60850000D01*
X38040000Y-66150000D02*
X43240000Y-66150000D01*
X38040000Y-64500000D02*
X38040000Y-66150000D01*
X38040000Y-62500000D02*
G75*
G02*
X38040000Y-64500000I0J-1000000D01*
G01*
%TO.C,J2*%
X29520000Y-95460000D02*
X29520000Y-94210000D01*
X28270000Y-95460000D02*
X29520000Y-95460000D01*
X12370000Y-89960000D02*
X20420000Y-89960000D01*
X12370000Y-92910000D02*
X12370000Y-89960000D01*
X11620000Y-92910000D02*
X12370000Y-92910000D01*
X28470000Y-89960000D02*
X20420000Y-89960000D01*
X28470000Y-92910000D02*
X28470000Y-89960000D01*
X29220000Y-92910000D02*
X28470000Y-92910000D01*
X11620000Y-95160000D02*
X13420000Y-95160000D01*
X11620000Y-94410000D02*
X11620000Y-95160000D01*
X13420000Y-94410000D02*
X11620000Y-94410000D01*
X13420000Y-95160000D02*
X13420000Y-94410000D01*
X27420000Y-95160000D02*
X29220000Y-95160000D01*
X27420000Y-94410000D02*
X27420000Y-95160000D01*
X29220000Y-94410000D02*
X27420000Y-94410000D01*
X29220000Y-95160000D02*
X29220000Y-94410000D01*
X14920000Y-95160000D02*
X25920000Y-95160000D01*
X14920000Y-94410000D02*
X14920000Y-95160000D01*
X25920000Y-94410000D02*
X14920000Y-94410000D01*
X25920000Y-95160000D02*
X25920000Y-94410000D01*
X11610000Y-95170000D02*
X29230000Y-95170000D01*
X11610000Y-89200000D02*
X11610000Y-95170000D01*
X29230000Y-89200000D02*
X11610000Y-89200000D01*
X29230000Y-95170000D02*
X29230000Y-89200000D01*
%TO.C,J3*%
X71140000Y-95170000D02*
X71140000Y-89200000D01*
X71140000Y-89200000D02*
X53520000Y-89200000D01*
X53520000Y-89200000D02*
X53520000Y-95170000D01*
X53520000Y-95170000D02*
X71140000Y-95170000D01*
X67830000Y-95160000D02*
X67830000Y-94410000D01*
X67830000Y-94410000D02*
X56830000Y-94410000D01*
X56830000Y-94410000D02*
X56830000Y-95160000D01*
X56830000Y-95160000D02*
X67830000Y-95160000D01*
X71130000Y-95160000D02*
X71130000Y-94410000D01*
X71130000Y-94410000D02*
X69330000Y-94410000D01*
X69330000Y-94410000D02*
X69330000Y-95160000D01*
X69330000Y-95160000D02*
X71130000Y-95160000D01*
X55330000Y-95160000D02*
X55330000Y-94410000D01*
X55330000Y-94410000D02*
X53530000Y-94410000D01*
X53530000Y-94410000D02*
X53530000Y-95160000D01*
X53530000Y-95160000D02*
X55330000Y-95160000D01*
X71130000Y-92910000D02*
X70380000Y-92910000D01*
X70380000Y-92910000D02*
X70380000Y-89960000D01*
X70380000Y-89960000D02*
X62330000Y-89960000D01*
X53530000Y-92910000D02*
X54280000Y-92910000D01*
X54280000Y-92910000D02*
X54280000Y-89960000D01*
X54280000Y-89960000D02*
X62330000Y-89960000D01*
X70180000Y-95460000D02*
X71430000Y-95460000D01*
X71430000Y-95460000D02*
X71430000Y-94210000D01*
%TO.C,D3*%
X43780000Y-8055000D02*
X43780000Y-10995000D01*
X44020000Y-8055000D02*
X44020000Y-10995000D01*
X43900000Y-8055000D02*
X43900000Y-10995000D01*
X49460000Y-9525000D02*
X48440000Y-9525000D01*
X41980000Y-9525000D02*
X43000000Y-9525000D01*
X48440000Y-8055000D02*
X43000000Y-8055000D01*
X48440000Y-10995000D02*
X48440000Y-8055000D01*
X43000000Y-10995000D02*
X48440000Y-10995000D01*
X43000000Y-8055000D02*
X43000000Y-10995000D01*
%TO.C,J6*%
X79930000Y-58400000D02*
X73960000Y-58400000D01*
X73960000Y-58400000D02*
X73960000Y-68520000D01*
X73960000Y-68520000D02*
X79930000Y-68520000D01*
X79930000Y-68520000D02*
X79930000Y-58400000D01*
X79920000Y-61710000D02*
X79170000Y-61710000D01*
X79170000Y-61710000D02*
X79170000Y-65210000D01*
X79170000Y-65210000D02*
X79920000Y-65210000D01*
X79920000Y-65210000D02*
X79920000Y-61710000D01*
X79920000Y-58410000D02*
X79170000Y-58410000D01*
X79170000Y-58410000D02*
X79170000Y-60210000D01*
X79170000Y-60210000D02*
X79920000Y-60210000D01*
X79920000Y-60210000D02*
X79920000Y-58410000D01*
X79920000Y-66710000D02*
X79170000Y-66710000D01*
X79170000Y-66710000D02*
X79170000Y-68510000D01*
X79170000Y-68510000D02*
X79920000Y-68510000D01*
X79920000Y-68510000D02*
X79920000Y-66710000D01*
X77670000Y-58410000D02*
X77670000Y-59160000D01*
X77670000Y-59160000D02*
X74720000Y-59160000D01*
X74720000Y-59160000D02*
X74720000Y-63460000D01*
X77670000Y-68510000D02*
X77670000Y-67760000D01*
X77670000Y-67760000D02*
X74720000Y-67760000D01*
X74720000Y-67760000D02*
X74720000Y-63460000D01*
X80220000Y-59360000D02*
X80220000Y-58110000D01*
X80220000Y-58110000D02*
X78970000Y-58110000D01*
%TO.C,J7*%
X80855000Y-74620000D02*
X79605000Y-74620000D01*
X80855000Y-75870000D02*
X80855000Y-74620000D01*
X75355000Y-84270000D02*
X75355000Y-79970000D01*
X78305000Y-84270000D02*
X75355000Y-84270000D01*
X78305000Y-85020000D02*
X78305000Y-84270000D01*
X75355000Y-75670000D02*
X75355000Y-79970000D01*
X78305000Y-75670000D02*
X75355000Y-75670000D01*
X78305000Y-74920000D02*
X78305000Y-75670000D01*
X80555000Y-85020000D02*
X80555000Y-83220000D01*
X79805000Y-85020000D02*
X80555000Y-85020000D01*
X79805000Y-83220000D02*
X79805000Y-85020000D01*
X80555000Y-83220000D02*
X79805000Y-83220000D01*
X80555000Y-76720000D02*
X80555000Y-74920000D01*
X79805000Y-76720000D02*
X80555000Y-76720000D01*
X79805000Y-74920000D02*
X79805000Y-76720000D01*
X80555000Y-74920000D02*
X79805000Y-74920000D01*
X80555000Y-81720000D02*
X80555000Y-78220000D01*
X79805000Y-81720000D02*
X80555000Y-81720000D01*
X79805000Y-78220000D02*
X79805000Y-81720000D01*
X80555000Y-78220000D02*
X79805000Y-78220000D01*
X80565000Y-85030000D02*
X80565000Y-74910000D01*
X74595000Y-85030000D02*
X80565000Y-85030000D01*
X74595000Y-74910000D02*
X74595000Y-85030000D01*
X80565000Y-74910000D02*
X74595000Y-74910000D01*
D11*
%TO.C,C1*%
X13600000Y-57948000D02*
X14275000Y-57948000D01*
X11125000Y-57948000D02*
X11800000Y-57948000D01*
X14275000Y-62448000D02*
X13600000Y-62448000D01*
X11125000Y-62448000D02*
X11800000Y-62448000D01*
X11125000Y-57948000D02*
X11125000Y-62448000D01*
X14275000Y-57948000D02*
X14275000Y-62448000D01*
%TO.C,C2*%
X11125000Y-21800000D02*
X11125000Y-16300000D01*
X14275000Y-21800000D02*
X14275000Y-16300000D01*
X14275000Y-16300000D02*
X13600000Y-16300000D01*
X11125000Y-16300000D02*
X11800000Y-16300000D01*
X14275000Y-21800000D02*
X13600000Y-21800000D01*
X11800000Y-21800000D02*
X11125000Y-21800000D01*
%TO.C,C3*%
X36460000Y-37890000D02*
X37135000Y-37890000D01*
X33985000Y-37890000D02*
X34660000Y-37890000D01*
X37135000Y-43390000D02*
X36460000Y-43390000D01*
X33985000Y-43390000D02*
X34660000Y-43390000D01*
X33985000Y-37890000D02*
X33985000Y-43390000D01*
X37135000Y-37890000D02*
X37135000Y-43390000D01*
%TO.C,J4*%
D12*
X72147180Y-36922033D02*
X72861466Y-36922033D01*
X73004323Y-36969652D01*
X73099561Y-37064890D01*
X73147180Y-37207747D01*
X73147180Y-37302985D01*
X72480514Y-36017271D02*
X73147180Y-36017271D01*
X72099561Y-36255366D02*
X72813847Y-36493461D01*
X72813847Y-35874414D01*
%TO.C,MH4*%
X76136666Y-89352380D02*
X76136666Y-88352380D01*
X76470000Y-89066666D01*
X76803333Y-88352380D01*
X76803333Y-89352380D01*
X77279523Y-89352380D02*
X77279523Y-88352380D01*
X77279523Y-88828571D02*
X77850952Y-88828571D01*
X77850952Y-89352380D02*
X77850952Y-88352380D01*
X78755714Y-88685714D02*
X78755714Y-89352380D01*
X78517619Y-88304761D02*
X78279523Y-89019047D01*
X78898571Y-89019047D01*
%TO.C,MH3*%
X2476666Y-89352380D02*
X2476666Y-88352380D01*
X2810000Y-89066666D01*
X3143333Y-88352380D01*
X3143333Y-89352380D01*
X3619523Y-89352380D02*
X3619523Y-88352380D01*
X3619523Y-88828571D02*
X4190952Y-88828571D01*
X4190952Y-89352380D02*
X4190952Y-88352380D01*
X4571904Y-88352380D02*
X5190952Y-88352380D01*
X4857619Y-88733333D01*
X5000476Y-88733333D01*
X5095714Y-88780952D01*
X5143333Y-88828571D01*
X5190952Y-88923809D01*
X5190952Y-89161904D01*
X5143333Y-89257142D01*
X5095714Y-89304761D01*
X5000476Y-89352380D01*
X4714761Y-89352380D01*
X4619523Y-89304761D01*
X4571904Y-89257142D01*
%TO.C,MH2*%
X2476666Y-8072380D02*
X2476666Y-7072380D01*
X2810000Y-7786666D01*
X3143333Y-7072380D01*
X3143333Y-8072380D01*
X3619523Y-8072380D02*
X3619523Y-7072380D01*
X3619523Y-7548571D02*
X4190952Y-7548571D01*
X4190952Y-8072380D02*
X4190952Y-7072380D01*
X4619523Y-7167619D02*
X4667142Y-7120000D01*
X4762380Y-7072380D01*
X5000476Y-7072380D01*
X5095714Y-7120000D01*
X5143333Y-7167619D01*
X5190952Y-7262857D01*
X5190952Y-7358095D01*
X5143333Y-7500952D01*
X4571904Y-8072380D01*
X5190952Y-8072380D01*
%TO.C,MH1*%
X76136666Y-8072380D02*
X76136666Y-7072380D01*
X76470000Y-7786666D01*
X76803333Y-7072380D01*
X76803333Y-8072380D01*
X77279523Y-8072380D02*
X77279523Y-7072380D01*
X77279523Y-7548571D02*
X77850952Y-7548571D01*
X77850952Y-8072380D02*
X77850952Y-7072380D01*
X78850952Y-8072380D02*
X78279523Y-8072380D01*
X78565238Y-8072380D02*
X78565238Y-7072380D01*
X78470000Y-7215238D01*
X78374761Y-7310476D01*
X78279523Y-7358095D01*
%TO.C,D1*%
X66746380Y-67032095D02*
X65746380Y-67032095D01*
X65746380Y-66794000D01*
X65794000Y-66651142D01*
X65889238Y-66555904D01*
X65984476Y-66508285D01*
X66174952Y-66460666D01*
X66317809Y-66460666D01*
X66508285Y-66508285D01*
X66603523Y-66555904D01*
X66698761Y-66651142D01*
X66746380Y-66794000D01*
X66746380Y-67032095D01*
X66746380Y-65508285D02*
X66746380Y-66079714D01*
X66746380Y-65794000D02*
X65746380Y-65794000D01*
X65889238Y-65889238D01*
X65984476Y-65984476D01*
X66032095Y-66079714D01*
X71132380Y-56141904D02*
X70132380Y-56141904D01*
X71132380Y-55570476D02*
X70560952Y-55999047D01*
X70132380Y-55570476D02*
X70703809Y-56141904D01*
%TO.C,D2*%
X66492380Y-86209095D02*
X65492380Y-86209095D01*
X65492380Y-85971000D01*
X65540000Y-85828142D01*
X65635238Y-85732904D01*
X65730476Y-85685285D01*
X65920952Y-85637666D01*
X66063809Y-85637666D01*
X66254285Y-85685285D01*
X66349523Y-85732904D01*
X66444761Y-85828142D01*
X66492380Y-85971000D01*
X66492380Y-86209095D01*
X65587619Y-85256714D02*
X65540000Y-85209095D01*
X65492380Y-85113857D01*
X65492380Y-84875761D01*
X65540000Y-84780523D01*
X65587619Y-84732904D01*
X65682857Y-84685285D01*
X65778095Y-84685285D01*
X65920952Y-84732904D01*
X66492380Y-85304333D01*
X66492380Y-84685285D01*
X71132380Y-75191904D02*
X70132380Y-75191904D01*
X71132380Y-74620476D02*
X70560952Y-75049047D01*
X70132380Y-74620476D02*
X70703809Y-75191904D01*
%TO.C,J1*%
X55932380Y-7123333D02*
X56646666Y-7123333D01*
X56789523Y-7170952D01*
X56884761Y-7266190D01*
X56932380Y-7409047D01*
X56932380Y-7504285D01*
X56932380Y-6123333D02*
X56932380Y-6694761D01*
X56932380Y-6409047D02*
X55932380Y-6409047D01*
X56075238Y-6504285D01*
X56170476Y-6599523D01*
X56218095Y-6694761D01*
%TO.C,J5*%
X72083680Y-26038133D02*
X72797966Y-26038133D01*
X72940823Y-26085752D01*
X73036061Y-26180990D01*
X73083680Y-26323847D01*
X73083680Y-26419085D01*
X72083680Y-25085752D02*
X72083680Y-25561942D01*
X72559871Y-25609561D01*
X72512252Y-25561942D01*
X72464633Y-25466704D01*
X72464633Y-25228609D01*
X72512252Y-25133371D01*
X72559871Y-25085752D01*
X72655109Y-25038133D01*
X72893204Y-25038133D01*
X72988442Y-25085752D01*
X73036061Y-25133371D01*
X73083680Y-25228609D01*
X73083680Y-25466704D01*
X73036061Y-25561942D01*
X72988442Y-25609561D01*
%TO.C,J8*%
D13*
X32472333Y-87864190D02*
X32472333Y-88221333D01*
X32448523Y-88292761D01*
X32400904Y-88340380D01*
X32329476Y-88364190D01*
X32281857Y-88364190D01*
X32781857Y-88078476D02*
X32734238Y-88054666D01*
X32710428Y-88030857D01*
X32686619Y-87983238D01*
X32686619Y-87959428D01*
X32710428Y-87911809D01*
X32734238Y-87888000D01*
X32781857Y-87864190D01*
X32877095Y-87864190D01*
X32924714Y-87888000D01*
X32948523Y-87911809D01*
X32972333Y-87959428D01*
X32972333Y-87983238D01*
X32948523Y-88030857D01*
X32924714Y-88054666D01*
X32877095Y-88078476D01*
X32781857Y-88078476D01*
X32734238Y-88102285D01*
X32710428Y-88126095D01*
X32686619Y-88173714D01*
X32686619Y-88268952D01*
X32710428Y-88316571D01*
X32734238Y-88340380D01*
X32781857Y-88364190D01*
X32877095Y-88364190D01*
X32924714Y-88340380D01*
X32948523Y-88316571D01*
X32972333Y-88268952D01*
X32972333Y-88173714D01*
X32948523Y-88126095D01*
X32924714Y-88102285D01*
X32877095Y-88078476D01*
%TO.C,J9*%
X42886333Y-87864190D02*
X42886333Y-88221333D01*
X42862523Y-88292761D01*
X42814904Y-88340380D01*
X42743476Y-88364190D01*
X42695857Y-88364190D01*
X43148238Y-88364190D02*
X43243476Y-88364190D01*
X43291095Y-88340380D01*
X43314904Y-88316571D01*
X43362523Y-88245142D01*
X43386333Y-88149904D01*
X43386333Y-87959428D01*
X43362523Y-87911809D01*
X43338714Y-87888000D01*
X43291095Y-87864190D01*
X43195857Y-87864190D01*
X43148238Y-87888000D01*
X43124428Y-87911809D01*
X43100619Y-87959428D01*
X43100619Y-88078476D01*
X43124428Y-88126095D01*
X43148238Y-88149904D01*
X43195857Y-88173714D01*
X43291095Y-88173714D01*
X43338714Y-88149904D01*
X43362523Y-88126095D01*
X43386333Y-88078476D01*
%TO.C,J10*%
D12*
X72337680Y-51558723D02*
X73051966Y-51558723D01*
X73194823Y-51606342D01*
X73290061Y-51701580D01*
X73337680Y-51844438D01*
X73337680Y-51939676D01*
X73337680Y-50558723D02*
X73337680Y-51130152D01*
X73337680Y-50844438D02*
X72337680Y-50844438D01*
X72480538Y-50939676D01*
X72575776Y-51034914D01*
X72623395Y-51130152D01*
X72337680Y-49939676D02*
X72337680Y-49844438D01*
X72385300Y-49749200D01*
X72432919Y-49701580D01*
X72528157Y-49653961D01*
X72718633Y-49606342D01*
X72956728Y-49606342D01*
X73147204Y-49653961D01*
X73242442Y-49701580D01*
X73290061Y-49749200D01*
X73337680Y-49844438D01*
X73337680Y-49939676D01*
X73290061Y-50034914D01*
X73242442Y-50082533D01*
X73147204Y-50130152D01*
X72956728Y-50177771D01*
X72718633Y-50177771D01*
X72528157Y-50130152D01*
X72432919Y-50082533D01*
X72385300Y-50034914D01*
X72337680Y-49939676D01*
%TO.C,Q1*%
X55158149Y-62325330D02*
X55110484Y-62420660D01*
X55015154Y-62515991D01*
X54872158Y-62658986D01*
X54824493Y-62754317D01*
X54824493Y-62849647D01*
X55062819Y-62801982D02*
X55015154Y-62897312D01*
X54919823Y-62992643D01*
X54729162Y-63040308D01*
X54395506Y-63040308D01*
X54204845Y-62992643D01*
X54109515Y-62897312D01*
X54061850Y-62801982D01*
X54061850Y-62611321D01*
X54109515Y-62515991D01*
X54204845Y-62420660D01*
X54395506Y-62372995D01*
X54729162Y-62372995D01*
X54919823Y-62420660D01*
X55015154Y-62515991D01*
X55062819Y-62611321D01*
X55062819Y-62801982D01*
X55062819Y-61419691D02*
X55062819Y-61991674D01*
X55062819Y-61705682D02*
X54061850Y-61705682D01*
X54204845Y-61801013D01*
X54300176Y-61896343D01*
X54347841Y-61991674D01*
%TO.C,Q2*%
X55285149Y-78708330D02*
X55237484Y-78803660D01*
X55142154Y-78898991D01*
X54999158Y-79041986D01*
X54951493Y-79137317D01*
X54951493Y-79232647D01*
X55189819Y-79184982D02*
X55142154Y-79280312D01*
X55046823Y-79375643D01*
X54856162Y-79423308D01*
X54522506Y-79423308D01*
X54331845Y-79375643D01*
X54236515Y-79280312D01*
X54188850Y-79184982D01*
X54188850Y-78994321D01*
X54236515Y-78898991D01*
X54331845Y-78803660D01*
X54522506Y-78755995D01*
X54856162Y-78755995D01*
X55046823Y-78803660D01*
X55142154Y-78898991D01*
X55189819Y-78994321D01*
X55189819Y-79184982D01*
X54284180Y-78374674D02*
X54236515Y-78327008D01*
X54188850Y-78231678D01*
X54188850Y-77993352D01*
X54236515Y-77898022D01*
X54284180Y-77850356D01*
X54379511Y-77802691D01*
X54474841Y-77802691D01*
X54617837Y-77850356D01*
X55189819Y-78422339D01*
X55189819Y-77802691D01*
%TO.C,R1*%
X58126333Y-18486380D02*
X57793000Y-18010190D01*
X57554904Y-18486380D02*
X57554904Y-17486380D01*
X57935857Y-17486380D01*
X58031095Y-17534000D01*
X58078714Y-17581619D01*
X58126333Y-17676857D01*
X58126333Y-17819714D01*
X58078714Y-17914952D01*
X58031095Y-17962571D01*
X57935857Y-18010190D01*
X57554904Y-18010190D01*
X59078714Y-18486380D02*
X58507285Y-18486380D01*
X58793000Y-18486380D02*
X58793000Y-17486380D01*
X58697761Y-17629238D01*
X58602523Y-17724476D01*
X58507285Y-17772095D01*
%TO.C,R2*%
X58253333Y-23482380D02*
X57920000Y-23006190D01*
X57681904Y-23482380D02*
X57681904Y-22482380D01*
X58062857Y-22482380D01*
X58158095Y-22530000D01*
X58205714Y-22577619D01*
X58253333Y-22672857D01*
X58253333Y-22815714D01*
X58205714Y-22910952D01*
X58158095Y-22958571D01*
X58062857Y-23006190D01*
X57681904Y-23006190D01*
X58634285Y-22577619D02*
X58681904Y-22530000D01*
X58777142Y-22482380D01*
X59015238Y-22482380D01*
X59110476Y-22530000D01*
X59158095Y-22577619D01*
X59205714Y-22672857D01*
X59205714Y-22768095D01*
X59158095Y-22910952D01*
X58586666Y-23482380D01*
X59205714Y-23482380D01*
%TO.C,R3*%
X27249380Y-81827666D02*
X26773190Y-82161000D01*
X27249380Y-82399095D02*
X26249380Y-82399095D01*
X26249380Y-82018142D01*
X26297000Y-81922904D01*
X26344619Y-81875285D01*
X26439857Y-81827666D01*
X26582714Y-81827666D01*
X26677952Y-81875285D01*
X26725571Y-81922904D01*
X26773190Y-82018142D01*
X26773190Y-82399095D01*
X26249380Y-81494333D02*
X26249380Y-80875285D01*
X26630333Y-81208619D01*
X26630333Y-81065761D01*
X26677952Y-80970523D01*
X26725571Y-80922904D01*
X26820809Y-80875285D01*
X27058904Y-80875285D01*
X27154142Y-80922904D01*
X27201761Y-80970523D01*
X27249380Y-81065761D01*
X27249380Y-81351476D01*
X27201761Y-81446714D01*
X27154142Y-81494333D01*
%TO.C,R4*%
X58507333Y-38933380D02*
X58174000Y-38457190D01*
X57935904Y-38933380D02*
X57935904Y-37933380D01*
X58316857Y-37933380D01*
X58412095Y-37981000D01*
X58459714Y-38028619D01*
X58507333Y-38123857D01*
X58507333Y-38266714D01*
X58459714Y-38361952D01*
X58412095Y-38409571D01*
X58316857Y-38457190D01*
X57935904Y-38457190D01*
X59364476Y-38266714D02*
X59364476Y-38933380D01*
X59126380Y-37885761D02*
X58888285Y-38600047D01*
X59507333Y-38600047D01*
%TO.C,R5*%
X58507333Y-44013380D02*
X58174000Y-43537190D01*
X57935904Y-44013380D02*
X57935904Y-43013380D01*
X58316857Y-43013380D01*
X58412095Y-43061000D01*
X58459714Y-43108619D01*
X58507333Y-43203857D01*
X58507333Y-43346714D01*
X58459714Y-43441952D01*
X58412095Y-43489571D01*
X58316857Y-43537190D01*
X57935904Y-43537190D01*
X59412095Y-43013380D02*
X58935904Y-43013380D01*
X58888285Y-43489571D01*
X58935904Y-43441952D01*
X59031142Y-43394333D01*
X59269238Y-43394333D01*
X59364476Y-43441952D01*
X59412095Y-43489571D01*
X59459714Y-43584809D01*
X59459714Y-43822904D01*
X59412095Y-43918142D01*
X59364476Y-43965761D01*
X59269238Y-44013380D01*
X59031142Y-44013380D01*
X58935904Y-43965761D01*
X58888285Y-43918142D01*
%TO.C,R6*%
X58380333Y-28773380D02*
X58047000Y-28297190D01*
X57808904Y-28773380D02*
X57808904Y-27773380D01*
X58189857Y-27773380D01*
X58285095Y-27821000D01*
X58332714Y-27868619D01*
X58380333Y-27963857D01*
X58380333Y-28106714D01*
X58332714Y-28201952D01*
X58285095Y-28249571D01*
X58189857Y-28297190D01*
X57808904Y-28297190D01*
X59237476Y-27773380D02*
X59047000Y-27773380D01*
X58951761Y-27821000D01*
X58904142Y-27868619D01*
X58808904Y-28011476D01*
X58761285Y-28201952D01*
X58761285Y-28582904D01*
X58808904Y-28678142D01*
X58856523Y-28725761D01*
X58951761Y-28773380D01*
X59142238Y-28773380D01*
X59237476Y-28725761D01*
X59285095Y-28678142D01*
X59332714Y-28582904D01*
X59332714Y-28344809D01*
X59285095Y-28249571D01*
X59237476Y-28201952D01*
X59142238Y-28154333D01*
X58951761Y-28154333D01*
X58856523Y-28201952D01*
X58808904Y-28249571D01*
X58761285Y-28344809D01*
%TO.C,R7*%
X58507333Y-33853380D02*
X58174000Y-33377190D01*
X57935904Y-33853380D02*
X57935904Y-32853380D01*
X58316857Y-32853380D01*
X58412095Y-32901000D01*
X58459714Y-32948619D01*
X58507333Y-33043857D01*
X58507333Y-33186714D01*
X58459714Y-33281952D01*
X58412095Y-33329571D01*
X58316857Y-33377190D01*
X57935904Y-33377190D01*
X58840666Y-32853380D02*
X59507333Y-32853380D01*
X59078761Y-33853380D01*
%TO.C,R8*%
X37663380Y-81573666D02*
X37187190Y-81907000D01*
X37663380Y-82145095D02*
X36663380Y-82145095D01*
X36663380Y-81764142D01*
X36711000Y-81668904D01*
X36758619Y-81621285D01*
X36853857Y-81573666D01*
X36996714Y-81573666D01*
X37091952Y-81621285D01*
X37139571Y-81668904D01*
X37187190Y-81764142D01*
X37187190Y-82145095D01*
X37091952Y-81002238D02*
X37044333Y-81097476D01*
X36996714Y-81145095D01*
X36901476Y-81192714D01*
X36853857Y-81192714D01*
X36758619Y-81145095D01*
X36711000Y-81097476D01*
X36663380Y-81002238D01*
X36663380Y-80811761D01*
X36711000Y-80716523D01*
X36758619Y-80668904D01*
X36853857Y-80621285D01*
X36901476Y-80621285D01*
X36996714Y-80668904D01*
X37044333Y-80716523D01*
X37091952Y-80811761D01*
X37091952Y-81002238D01*
X37139571Y-81097476D01*
X37187190Y-81145095D01*
X37282428Y-81192714D01*
X37472904Y-81192714D01*
X37568142Y-81145095D01*
X37615761Y-81097476D01*
X37663380Y-81002238D01*
X37663380Y-80811761D01*
X37615761Y-80716523D01*
X37568142Y-80668904D01*
X37472904Y-80621285D01*
X37282428Y-80621285D01*
X37187190Y-80668904D01*
X37139571Y-80716523D01*
X37091952Y-80811761D01*
%TO.C,R9*%
X41743333Y-18402380D02*
X41410000Y-17926190D01*
X41171904Y-18402380D02*
X41171904Y-17402380D01*
X41552857Y-17402380D01*
X41648095Y-17450000D01*
X41695714Y-17497619D01*
X41743333Y-17592857D01*
X41743333Y-17735714D01*
X41695714Y-17830952D01*
X41648095Y-17878571D01*
X41552857Y-17926190D01*
X41171904Y-17926190D01*
X42219523Y-18402380D02*
X42410000Y-18402380D01*
X42505238Y-18354761D01*
X42552857Y-18307142D01*
X42648095Y-18164285D01*
X42695714Y-17973809D01*
X42695714Y-17592857D01*
X42648095Y-17497619D01*
X42600476Y-17450000D01*
X42505238Y-17402380D01*
X42314761Y-17402380D01*
X42219523Y-17450000D01*
X42171904Y-17497619D01*
X42124285Y-17592857D01*
X42124285Y-17830952D01*
X42171904Y-17926190D01*
X42219523Y-17973809D01*
X42314761Y-18021428D01*
X42505238Y-18021428D01*
X42600476Y-17973809D01*
X42648095Y-17926190D01*
X42695714Y-17830952D01*
%TO.C,R10*%
X41267142Y-23482380D02*
X40933809Y-23006190D01*
X40695714Y-23482380D02*
X40695714Y-22482380D01*
X41076666Y-22482380D01*
X41171904Y-22530000D01*
X41219523Y-22577619D01*
X41267142Y-22672857D01*
X41267142Y-22815714D01*
X41219523Y-22910952D01*
X41171904Y-22958571D01*
X41076666Y-23006190D01*
X40695714Y-23006190D01*
X42219523Y-23482380D02*
X41648095Y-23482380D01*
X41933809Y-23482380D02*
X41933809Y-22482380D01*
X41838571Y-22625238D01*
X41743333Y-22720476D01*
X41648095Y-22768095D01*
X42838571Y-22482380D02*
X42933809Y-22482380D01*
X43029047Y-22530000D01*
X43076666Y-22577619D01*
X43124285Y-22672857D01*
X43171904Y-22863333D01*
X43171904Y-23101428D01*
X43124285Y-23291904D01*
X43076666Y-23387142D01*
X43029047Y-23434761D01*
X42933809Y-23482380D01*
X42838571Y-23482380D01*
X42743333Y-23434761D01*
X42695714Y-23387142D01*
X42648095Y-23291904D01*
X42600476Y-23101428D01*
X42600476Y-22863333D01*
X42648095Y-22672857D01*
X42695714Y-22577619D01*
X42743333Y-22530000D01*
X42838571Y-22482380D01*
%TO.C,U1*%
X13978380Y-40131904D02*
X14787904Y-40131904D01*
X14883142Y-40084285D01*
X14930761Y-40036666D01*
X14978380Y-39941428D01*
X14978380Y-39750952D01*
X14930761Y-39655714D01*
X14883142Y-39608095D01*
X14787904Y-39560476D01*
X13978380Y-39560476D01*
X14978380Y-38560476D02*
X14978380Y-39131904D01*
X14978380Y-38846190D02*
X13978380Y-38846190D01*
X14121238Y-38941428D01*
X14216476Y-39036666D01*
X14264095Y-39131904D01*
%TO.C,U3*%
X37933380Y-31114904D02*
X38742904Y-31114904D01*
X38838142Y-31067285D01*
X38885761Y-31019666D01*
X38933380Y-30924428D01*
X38933380Y-30733952D01*
X38885761Y-30638714D01*
X38838142Y-30591095D01*
X38742904Y-30543476D01*
X37933380Y-30543476D01*
X37933380Y-30162523D02*
X37933380Y-29543476D01*
X38314333Y-29876809D01*
X38314333Y-29733952D01*
X38361952Y-29638714D01*
X38409571Y-29591095D01*
X38504809Y-29543476D01*
X38742904Y-29543476D01*
X38838142Y-29591095D01*
X38885761Y-29638714D01*
X38933380Y-29733952D01*
X38933380Y-30019666D01*
X38885761Y-30114904D01*
X38838142Y-30162523D01*
%TO.C,U4*%
X26332380Y-64261904D02*
X27141904Y-64261904D01*
X27237142Y-64214285D01*
X27284761Y-64166666D01*
X27332380Y-64071428D01*
X27332380Y-63880952D01*
X27284761Y-63785714D01*
X27237142Y-63738095D01*
X27141904Y-63690476D01*
X26332380Y-63690476D01*
X26665714Y-62785714D02*
X27332380Y-62785714D01*
X26284761Y-63023809D02*
X26999047Y-63261904D01*
X26999047Y-62642857D01*
%TO.C,U6*%
X36492380Y-64261904D02*
X37301904Y-64261904D01*
X37397142Y-64214285D01*
X37444761Y-64166666D01*
X37492380Y-64071428D01*
X37492380Y-63880952D01*
X37444761Y-63785714D01*
X37397142Y-63738095D01*
X37301904Y-63690476D01*
X36492380Y-63690476D01*
X36492380Y-62785714D02*
X36492380Y-62976190D01*
X36540000Y-63071428D01*
X36587619Y-63119047D01*
X36730476Y-63214285D01*
X36920952Y-63261904D01*
X37301904Y-63261904D01*
X37397142Y-63214285D01*
X37444761Y-63166666D01*
X37492380Y-63071428D01*
X37492380Y-62880952D01*
X37444761Y-62785714D01*
X37397142Y-62738095D01*
X37301904Y-62690476D01*
X37063809Y-62690476D01*
X36968571Y-62738095D01*
X36920952Y-62785714D01*
X36873333Y-62880952D01*
X36873333Y-63071428D01*
X36920952Y-63166666D01*
X36968571Y-63214285D01*
X37063809Y-63261904D01*
%TO.C,J2*%
X12112666Y-87463380D02*
X12112666Y-88177666D01*
X12065047Y-88320523D01*
X11969809Y-88415761D01*
X11826952Y-88463380D01*
X11731714Y-88463380D01*
X12541238Y-87558619D02*
X12588857Y-87511000D01*
X12684095Y-87463380D01*
X12922190Y-87463380D01*
X13017428Y-87511000D01*
X13065047Y-87558619D01*
X13112666Y-87653857D01*
X13112666Y-87749095D01*
X13065047Y-87891952D01*
X12493619Y-88463380D01*
X13112666Y-88463380D01*
%TO.C,J3*%
X53895666Y-87336380D02*
X53895666Y-88050666D01*
X53848047Y-88193523D01*
X53752809Y-88288761D01*
X53609952Y-88336380D01*
X53514714Y-88336380D01*
X54276619Y-87336380D02*
X54895666Y-87336380D01*
X54562333Y-87717333D01*
X54705190Y-87717333D01*
X54800428Y-87764952D01*
X54848047Y-87812571D01*
X54895666Y-87907809D01*
X54895666Y-88145904D01*
X54848047Y-88241142D01*
X54800428Y-88288761D01*
X54705190Y-88336380D01*
X54419476Y-88336380D01*
X54324238Y-88288761D01*
X54276619Y-88241142D01*
%TO.C,D3*%
X44981904Y-7507380D02*
X44981904Y-6507380D01*
X45220000Y-6507380D01*
X45362857Y-6555000D01*
X45458095Y-6650238D01*
X45505714Y-6745476D01*
X45553333Y-6935952D01*
X45553333Y-7078809D01*
X45505714Y-7269285D01*
X45458095Y-7364523D01*
X45362857Y-7459761D01*
X45220000Y-7507380D01*
X44981904Y-7507380D01*
X45886666Y-6507380D02*
X46505714Y-6507380D01*
X46172380Y-6888333D01*
X46315238Y-6888333D01*
X46410476Y-6935952D01*
X46458095Y-6983571D01*
X46505714Y-7078809D01*
X46505714Y-7316904D01*
X46458095Y-7412142D01*
X46410476Y-7459761D01*
X46315238Y-7507380D01*
X46029523Y-7507380D01*
X45934285Y-7459761D01*
X45886666Y-7412142D01*
X40378095Y-7877380D02*
X40378095Y-6877380D01*
X40949523Y-7877380D02*
X40520952Y-7305952D01*
X40949523Y-6877380D02*
X40378095Y-7448809D01*
%TO.C,J6*%
X72096380Y-68024333D02*
X72810666Y-68024333D01*
X72953523Y-68071952D01*
X73048761Y-68167190D01*
X73096380Y-68310047D01*
X73096380Y-68405285D01*
X72096380Y-67119571D02*
X72096380Y-67310047D01*
X72144000Y-67405285D01*
X72191619Y-67452904D01*
X72334476Y-67548142D01*
X72524952Y-67595761D01*
X72905904Y-67595761D01*
X73001142Y-67548142D01*
X73048761Y-67500523D01*
X73096380Y-67405285D01*
X73096380Y-67214809D01*
X73048761Y-67119571D01*
X73001142Y-67071952D01*
X72905904Y-67024333D01*
X72667809Y-67024333D01*
X72572571Y-67071952D01*
X72524952Y-67119571D01*
X72477333Y-67214809D01*
X72477333Y-67405285D01*
X72524952Y-67500523D01*
X72572571Y-67548142D01*
X72667809Y-67595761D01*
%TO.C,J7*%
X72858380Y-84915333D02*
X73572666Y-84915333D01*
X73715523Y-84962952D01*
X73810761Y-85058190D01*
X73858380Y-85201047D01*
X73858380Y-85296285D01*
X72858380Y-84534380D02*
X72858380Y-83867714D01*
X73858380Y-84296285D01*
%TO.C,C1*%
X10422142Y-62777666D02*
X10469761Y-62825285D01*
X10517380Y-62968142D01*
X10517380Y-63063380D01*
X10469761Y-63206238D01*
X10374523Y-63301476D01*
X10279285Y-63349095D01*
X10088809Y-63396714D01*
X9945952Y-63396714D01*
X9755476Y-63349095D01*
X9660238Y-63301476D01*
X9565000Y-63206238D01*
X9517380Y-63063380D01*
X9517380Y-62968142D01*
X9565000Y-62825285D01*
X9612619Y-62777666D01*
X10517380Y-61825285D02*
X10517380Y-62396714D01*
X10517380Y-62111000D02*
X9517380Y-62111000D01*
X9660238Y-62206238D01*
X9755476Y-62301476D01*
X9803095Y-62396714D01*
%TO.C,C2*%
X10517142Y-21121666D02*
X10564761Y-21169285D01*
X10612380Y-21312142D01*
X10612380Y-21407380D01*
X10564761Y-21550238D01*
X10469523Y-21645476D01*
X10374285Y-21693095D01*
X10183809Y-21740714D01*
X10040952Y-21740714D01*
X9850476Y-21693095D01*
X9755238Y-21645476D01*
X9660000Y-21550238D01*
X9612380Y-21407380D01*
X9612380Y-21312142D01*
X9660000Y-21169285D01*
X9707619Y-21121666D01*
X9707619Y-20740714D02*
X9660000Y-20693095D01*
X9612380Y-20597857D01*
X9612380Y-20359761D01*
X9660000Y-20264523D01*
X9707619Y-20216904D01*
X9802857Y-20169285D01*
X9898095Y-20169285D01*
X10040952Y-20216904D01*
X10612380Y-20788333D01*
X10612380Y-20169285D01*
%TO.C,C3*%
X33504142Y-42965666D02*
X33551761Y-43013285D01*
X33599380Y-43156142D01*
X33599380Y-43251380D01*
X33551761Y-43394238D01*
X33456523Y-43489476D01*
X33361285Y-43537095D01*
X33170809Y-43584714D01*
X33027952Y-43584714D01*
X32837476Y-43537095D01*
X32742238Y-43489476D01*
X32647000Y-43394238D01*
X32599380Y-43251380D01*
X32599380Y-43156142D01*
X32647000Y-43013285D01*
X32694619Y-42965666D01*
X32599380Y-42632333D02*
X32599380Y-42013285D01*
X32980333Y-42346619D01*
X32980333Y-42203761D01*
X33027952Y-42108523D01*
X33075571Y-42060904D01*
X33170809Y-42013285D01*
X33408904Y-42013285D01*
X33504142Y-42060904D01*
X33551761Y-42108523D01*
X33599380Y-42203761D01*
X33599380Y-42489476D01*
X33551761Y-42584714D01*
X33504142Y-42632333D01*
%TD*%
M02*
