M48
; DRILL file {KiCad (5.1.12)-1} date 01/09/22 19:11:45
; FORMAT={2:4/ absolute / inch / suppress leading zeros}
; #@! TF.CreationDate,2022-01-09T19:11:45+09:00
; #@! TF.GenerationSoftware,Kicad,Pcbnew,(5.1.12)-1
FMAT,2
INCH,TZ
T1C0.0157
T2C0.0295
T3C0.0300
T4C0.0315
T5C0.0374
T6C0.0394
T7C0.0433
T8C0.0571
T9C0.0630
T10C0.1260
%
G90
G05
T1
X3750Y-29000
X9750Y-15500
X11000Y-8000
X18000Y-33500
X18364Y-14030
X20000Y-23750
X24250Y-21000
X29250Y-4250
T2
X5000Y-6516
X5000Y-8484
X5000Y-22716
X5000Y-24684
X14000Y-15016
X14000Y-16984
T3
X16000Y-12000
X16000Y-13000
X16000Y-14000
X16000Y-15000
X16000Y-16000
X16000Y-17000
X16000Y-18000
X16000Y-19000
X16000Y-20000
X19000Y-12000
X19000Y-13000
X19000Y-14000
X19000Y-15000
X19000Y-16000
X19000Y-17000
X19000Y-18000
X19000Y-19000
X19000Y-20000
T4
X11500Y-23500
X11500Y-26500
X11500Y-28500
X11500Y-32500
X12500Y-23500
X12500Y-26500
X15500Y-23500
X15500Y-26500
X15500Y-28500
X15500Y-32500
X16000Y-8000
X16000Y-10000
X16500Y-23500
X16500Y-26500
X20000Y-8000
X20000Y-10000
X22500Y-8000
X22500Y-10000
X22500Y-12000
X22500Y-14000
X22500Y-16000
X22500Y-18000
X26500Y-8000
X26500Y-10000
X26500Y-12000
X26500Y-14000
X26500Y-16000
X26500Y-18000
T5
X5579Y-36500
X6563Y-36500
X7547Y-36500
X8531Y-36500
X9516Y-36500
X10500Y-36500
X22079Y-36500
X23063Y-36500
X24047Y-36500
X25031Y-36500
X26016Y-36500
X27000Y-36500
X30500Y-16500
X30500Y-17484
X30500Y-18469
X30500Y-19453
X30500Y-24000
X30500Y-24984
X30500Y-25969
X30750Y-30500
X30750Y-31484
X30750Y-32469
T6
X13766Y-36500
X14750Y-36500
X18016Y-36500
X19000Y-36500
X30500Y-8500
X30500Y-9484
X30500Y-12500
X30500Y-13484
T7
X7400Y-14500
X7400Y-15500
X7400Y-16500
X16000Y-3750
X20000Y-3750
X22500Y-23594
X22500Y-24500
X22500Y-25406
X22500Y-30094
X22500Y-31000
X22500Y-31906
X27000Y-22000
X27000Y-26000
X27000Y-29500
X27000Y-33500
T8
X5250Y-11022
X5250Y-19978
T9
X22650Y-4819
X24500Y-3638
X24500Y-6000
T10
X1500Y-1500
X1500Y-36500
X30500Y-1500
X30500Y-36500
T0
M30
