%TF.GenerationSoftware,KiCad,Pcbnew,(5.1.12)-1*%
%TF.CreationDate,2022-01-09T19:11:42+09:00*%
%TF.ProjectId,24VFanController,32345646-616e-4436-9f6e-74726f6c6c65,rev?*%
%TF.SameCoordinates,PX6d01460PY196f3b0*%
%TF.FileFunction,Soldermask,Top*%
%TF.FilePolarity,Negative*%
%FSLAX46Y46*%
G04 Gerber Fmt 4.6, Leading zero omitted, Abs format (unit mm)*
G04 Created by KiCad (PCBNEW (5.1.12)-1) date 2022-01-09 19:11:42*
%MOMM*%
%LPD*%
G01*
G04 APERTURE LIST*
%ADD10O,2.000000X1.700000*%
%ADD11C,3.200000*%
%ADD12C,2.500000*%
%ADD13O,2.200000X2.200000*%
%ADD14R,2.200000X2.200000*%
%ADD15R,2.600000X2.600000*%
%ADD16C,2.600000*%
%ADD17O,1.700000X2.000000*%
%ADD18O,1.950000X1.700000*%
%ADD19C,1.650000*%
%ADD20R,1.650000X1.650000*%
%ADD21C,1.600000*%
%ADD22O,1.600000X1.600000*%
%ADD23R,2.000000X1.905000*%
%ADD24O,2.000000X1.905000*%
%ADD25R,1.524000X1.524000*%
%ADD26C,1.524000*%
%ADD27R,1.600000X1.600000*%
%ADD28O,1.700000X1.950000*%
%ADD29C,1.150000*%
G04 APERTURE END LIST*
D10*
%TO.C,J4*%
X77470000Y-34250000D03*
G36*
G01*
X76720000Y-30900000D02*
X78220000Y-30900000D01*
G75*
G02*
X78470000Y-31150000I0J-250000D01*
G01*
X78470000Y-32350000D01*
G75*
G02*
X78220000Y-32600000I-250000J0D01*
G01*
X76720000Y-32600000D01*
G75*
G02*
X76470000Y-32350000I0J250000D01*
G01*
X76470000Y-31150000D01*
G75*
G02*
X76720000Y-30900000I250000J0D01*
G01*
G37*
%TD*%
D11*
%TO.C,MH4*%
X77470000Y-92710000D03*
%TD*%
%TO.C,MH3*%
X3810000Y-92710000D03*
%TD*%
%TO.C,MH2*%
X3810000Y-3810000D03*
%TD*%
%TO.C,MH1*%
X77470000Y-3810000D03*
%TD*%
D12*
%TO.C,  *%
X13335000Y-27995000D03*
X13335000Y-50745000D03*
%TD*%
D13*
%TO.C,D1*%
X68580000Y-66040000D03*
D14*
X68580000Y-55880000D03*
%TD*%
%TO.C,D2*%
X68580000Y-74930000D03*
D13*
X68580000Y-85090000D03*
%TD*%
D15*
%TO.C,J1*%
X62230000Y-15240000D03*
D16*
X62230000Y-9240000D03*
X57530000Y-12240000D03*
%TD*%
%TO.C,J5*%
G36*
G01*
X76720000Y-20740000D02*
X78220000Y-20740000D01*
G75*
G02*
X78470000Y-20990000I0J-250000D01*
G01*
X78470000Y-22190000D01*
G75*
G02*
X78220000Y-22440000I-250000J0D01*
G01*
X76720000Y-22440000D01*
G75*
G02*
X76470000Y-22190000I0J250000D01*
G01*
X76470000Y-20990000D01*
G75*
G02*
X76720000Y-20740000I250000J0D01*
G01*
G37*
D10*
X77470000Y-24090000D03*
%TD*%
D17*
%TO.C,J8*%
X34965000Y-92710000D03*
G36*
G01*
X38315000Y-91960000D02*
X38315000Y-93460000D01*
G75*
G02*
X38065000Y-93710000I-250000J0D01*
G01*
X36865000Y-93710000D01*
G75*
G02*
X36615000Y-93460000I0J250000D01*
G01*
X36615000Y-91960000D01*
G75*
G02*
X36865000Y-91710000I250000J0D01*
G01*
X38065000Y-91710000D01*
G75*
G02*
X38315000Y-91960000I0J-250000D01*
G01*
G37*
%TD*%
%TO.C,J9*%
G36*
G01*
X49110000Y-91960000D02*
X49110000Y-93460000D01*
G75*
G02*
X48860000Y-93710000I-250000J0D01*
G01*
X47660000Y-93710000D01*
G75*
G02*
X47410000Y-93460000I0J250000D01*
G01*
X47410000Y-91960000D01*
G75*
G02*
X47660000Y-91710000I250000J0D01*
G01*
X48860000Y-91710000D01*
G75*
G02*
X49110000Y-91960000I0J-250000D01*
G01*
G37*
X45760000Y-92710000D03*
%TD*%
%TO.C,J10*%
G36*
G01*
X76745000Y-41060000D02*
X78195000Y-41060000D01*
G75*
G02*
X78445000Y-41310000I0J-250000D01*
G01*
X78445000Y-42510000D01*
G75*
G02*
X78195000Y-42760000I-250000J0D01*
G01*
X76745000Y-42760000D01*
G75*
G02*
X76495000Y-42510000I0J250000D01*
G01*
X76495000Y-41310000D01*
G75*
G02*
X76745000Y-41060000I250000J0D01*
G01*
G37*
D18*
X77470000Y-44410000D03*
X77470000Y-46910000D03*
X77470000Y-49410000D03*
%TD*%
D19*
%TO.C,Q1*%
X57150000Y-64530000D03*
X57150000Y-62230000D03*
D20*
X57150000Y-59930000D03*
%TD*%
%TO.C,Q2*%
X57150000Y-76440000D03*
D19*
X57150000Y-78740000D03*
X57150000Y-81040000D03*
%TD*%
D21*
%TO.C,R1*%
X57150000Y-20320000D03*
D22*
X67310000Y-20320000D03*
%TD*%
D21*
%TO.C,R2*%
X57150000Y-25400000D03*
D22*
X67310000Y-25400000D03*
%TD*%
D21*
%TO.C,R3*%
X29210000Y-72390000D03*
D22*
X29210000Y-82550000D03*
%TD*%
%TO.C,R4*%
X67310000Y-40640000D03*
D21*
X57150000Y-40640000D03*
%TD*%
D22*
%TO.C,R5*%
X67310000Y-45720000D03*
D21*
X57150000Y-45720000D03*
%TD*%
D22*
%TO.C,R6*%
X67310000Y-30480000D03*
D21*
X57150000Y-30480000D03*
%TD*%
%TO.C,R7*%
X67310000Y-35560000D03*
D22*
X57150000Y-35560000D03*
%TD*%
%TO.C,R8*%
X39370000Y-82550000D03*
D21*
X39370000Y-72390000D03*
%TD*%
%TO.C,R9*%
X40640000Y-20320000D03*
D22*
X50800000Y-20320000D03*
%TD*%
%TO.C,R10*%
X50800000Y-25400000D03*
D21*
X40640000Y-25400000D03*
%TD*%
D23*
%TO.C,U1*%
X18796000Y-41910000D03*
D24*
X18796000Y-39370000D03*
X18796000Y-36830000D03*
%TD*%
D25*
%TO.C,U3*%
X48260000Y-50800000D03*
D26*
X48260000Y-48260000D03*
X48260000Y-45720000D03*
X48260000Y-43180000D03*
X48260000Y-40640000D03*
X48260000Y-38100000D03*
X48260000Y-35560000D03*
X48260000Y-33020000D03*
X48260000Y-30480000D03*
X40640000Y-30480000D03*
X40640000Y-33020000D03*
X40640000Y-35560000D03*
X40640000Y-38100000D03*
X40640000Y-40640000D03*
X40640000Y-43180000D03*
X40640000Y-45720000D03*
X40640000Y-48260000D03*
X40640000Y-50800000D03*
%TD*%
D27*
%TO.C,U4*%
X29210000Y-67310000D03*
D22*
X31750000Y-59690000D03*
X31750000Y-67310000D03*
X29210000Y-59690000D03*
%TD*%
%TO.C,U6*%
X39370000Y-59690000D03*
X41910000Y-67310000D03*
X41910000Y-59690000D03*
D27*
X39370000Y-67310000D03*
%TD*%
%TO.C,J2*%
G36*
G01*
X27520000Y-91985000D02*
X27520000Y-93435000D01*
G75*
G02*
X27270000Y-93685000I-250000J0D01*
G01*
X26070000Y-93685000D01*
G75*
G02*
X25820000Y-93435000I0J250000D01*
G01*
X25820000Y-91985000D01*
G75*
G02*
X26070000Y-91735000I250000J0D01*
G01*
X27270000Y-91735000D01*
G75*
G02*
X27520000Y-91985000I0J-250000D01*
G01*
G37*
D28*
X24170000Y-92710000D03*
X21670000Y-92710000D03*
X19170000Y-92710000D03*
X16670000Y-92710000D03*
X14170000Y-92710000D03*
%TD*%
%TO.C,J3*%
X56080000Y-92710000D03*
X58580000Y-92710000D03*
X61080000Y-92710000D03*
X63580000Y-92710000D03*
X66080000Y-92710000D03*
G36*
G01*
X69430000Y-91985000D02*
X69430000Y-93435000D01*
G75*
G02*
X69180000Y-93685000I-250000J0D01*
G01*
X67980000Y-93685000D01*
G75*
G02*
X67730000Y-93435000I0J250000D01*
G01*
X67730000Y-91985000D01*
G75*
G02*
X67980000Y-91735000I250000J0D01*
G01*
X69180000Y-91735000D01*
G75*
G02*
X69430000Y-91985000I0J-250000D01*
G01*
G37*
%TD*%
D14*
%TO.C,D3*%
X40640000Y-9525000D03*
D13*
X50800000Y-9525000D03*
%TD*%
D18*
%TO.C,J6*%
X77470000Y-65960000D03*
X77470000Y-63460000D03*
G36*
G01*
X76745000Y-60110000D02*
X78195000Y-60110000D01*
G75*
G02*
X78445000Y-60360000I0J-250000D01*
G01*
X78445000Y-61560000D01*
G75*
G02*
X78195000Y-61810000I-250000J0D01*
G01*
X76745000Y-61810000D01*
G75*
G02*
X76495000Y-61560000I0J250000D01*
G01*
X76495000Y-60360000D01*
G75*
G02*
X76745000Y-60110000I250000J0D01*
G01*
G37*
%TD*%
%TO.C,J7*%
G36*
G01*
X77380000Y-76620000D02*
X78830000Y-76620000D01*
G75*
G02*
X79080000Y-76870000I0J-250000D01*
G01*
X79080000Y-78070000D01*
G75*
G02*
X78830000Y-78320000I-250000J0D01*
G01*
X77380000Y-78320000D01*
G75*
G02*
X77130000Y-78070000I0J250000D01*
G01*
X77130000Y-76870000D01*
G75*
G02*
X77380000Y-76620000I250000J0D01*
G01*
G37*
X78105000Y-79970000D03*
X78105000Y-82470000D03*
%TD*%
D29*
%TO.C,C1*%
X12700000Y-62698000D03*
X12700000Y-57698000D03*
%TD*%
%TO.C,C2*%
X12700000Y-16550000D03*
X12700000Y-21550000D03*
%TD*%
%TO.C,C3*%
X35560000Y-38140000D03*
X35560000Y-43140000D03*
%TD*%
M02*
